# xmcd CD database file
#
# Track frame offsets:
#	150
#	17142
#	36192
#
# Disc length: 707 seconds
#
# Revision: 0
# Processed by: cddbd v1.5PL3 Copyright (c) Steve Scherf et al.
# Submitted via: CDex 1.50beta9
#
DISCID=1c02c103
DTITLE=セクシー8 - 幸せですか？
DYEAR=2002
DGENRE=Rock
TTITLE0=幸せですか？
TTITLE1=よくある親子のセレナーデ
TTITLE2=幸せですか？(Instrumental)
EXTD=YEAR: 2002
EXTT0=
EXTT1=
EXTT2=
PLAYORDER=
